# xmcd
#
# Track frame offsets:
#	150
#	13417
#	23549
#	37537
#	51206
#	63192
#
# Disc length: 1149 seconds
#
# Revision: 1
# Processed by: cddbd v1.5.1PL0 Copyright (c) Steve Scherf et al.
# Submitted via: audiograbber 1.82.02
#
DISCID=3c047b06
DTITLE=Drake - Mixed - Emotion
DYEAR=2004
DGENRE=Country
TTITLE0=When you say nothing at all
TTITLE1=Erinnerung
TTITLE2=Timeless
TTITLE3=Some days are diamonds
TTITLE4=What I feel inside
TTITLE5=Mixed-Emotion-Song
EXTD=
EXTT0=
EXTT1=
EXTT2=
EXTT3=
EXTT4=
EXTT5=
PLAYORDER=
